<?xml version="1.0" encoding="UTF-8"?>
<svg xmlns="http://www.w3.org/2000/svg" xmlns:xlink="http://www.w3.org/1999/xlink" width="2000" height="2000" viewBox="0 0 2000 2000">
<rect x="-200" y="-200" width="2400" height="2400" fill="rgb(100%, 100%, 100%)" fill-opacity="1"/>
<path fill-rule="evenodd" fill="rgb(19.993591%, 80.076599%, 19.993591%)" fill-opacity="1" d="M 627.855469 346.710938 Z M 1491.300781 1580.625 L 1440.390625 1619.613281 C 1400.269531 1648.128906 1357.519531 1673.496094 1317.949219 1690.515625 C 1280.320312 1706.699219 1272.640625 1709.894531 1233.859375 1722.214844 C 1169.410156 1742.691406 1093.628906 1760.265625 1026.210938 1764.886719 L 964.351562 1765.355469 C 957.914062 1764.9375 951.128906 1764.6875 944.863281 1764.527344 C 930.113281 1764.152344 920.613281 1762.015625 906.195312 1760.597656 C 903.429688 1760.324219 902.867188 1760.414062 900.222656 1760.167969 L 845.664062 1750.996094 C 839.527344 1749.828125 832.453125 1747.765625 826.695312 1746.269531 C 721.679688 1719.003906 688.140625 1697.867188 600.339844 1645.851562 C 523.46875 1600.3125 454.839844 1539.863281 398.019531 1468.074219 L 382.75 1448.140625 C 326.992188 1372.789062 283.882812 1285.960938 257.246094 1191.4375 C 253.414062 1177.839844 223.710938 1045.4375 234.472656 1028.640625 L 246.355469 1120.65625 C 247.425781 1126.773438 248.699219 1133.085938 249.917969 1139.21875 C 252.359375 1151.511719 255.929688 1163.53125 259.050781 1176.605469 C 266.5 1207.828125 298.246094 1303.054688 316.953125 1327.480469 L 277.90625 1227.339844 L 253.804688 1129.179688 C 245.242188 1084.800781 242.753906 1045.371094 242.21875 1001.027344 C 241.945312 978.171875 245.261719 911.699219 249.882812 890.5 C 251.265625 884.148438 251.691406 881.988281 252.5 875.769531 C 253.292969 869.660156 253.742188 865.550781 254.582031 859.46875 C 257.859375 835.710938 274.710938 776.210938 281.640625 754.519531 C 289.628906 729.511719 306.886719 688.101562 318.417969 664.441406 C 377.644531 542.929688 464.828125 443.808594 588.660156 358.101562 C 651.316406 314.730469 721.367188 287.980469 790.871094 265.429688 C 813.070312 258.21875 832.855469 254.921875 854.8125 249.300781 C 866.882812 246.21875 876.230469 245.890625 887.179688 243.929688 C 938.917969 234.679688 1010.441406 232.738281 1063.039062 236.351562 C 1068.308594 236.710938 1072.5 237.558594 1077.851562 238.300781 C 1083.648438 239.101562 1086.640625 239.71875 1092.730469 239.738281 C 1109.621094 239.800781 1117.621094 243.660156 1138.589844 246.320312 L 1200.121094 259.738281 C 1291.648438 284.5 1359.640625 318.308594 1437.140625 370.699219 C 1480.460938 399.988281 1522.71875 436.96875 1558.21875 478.429688 L 1552.921875 482.261719 C 1526.378906 456.179688 1484.960938 419.019531 1471.359375 408.171875 C 1431.609375 376.441406 1359.578125 330.539062 1313.738281 312.289062 C 1236.851562 281.660156 1219.171875 274.269531 1137.019531 258.171875 C 1131.128906 257.011719 1130.011719 255.960938 1123.890625 254.910156 L 1039.078125 246.539062 L 953.066406 247.21875 C 896.863281 250.910156 804.496094 267.109375 750.089844 288.808594 C 734.472656 295.039062 704.128906 304.261719 690.929688 314.371094 L 741.722656 295.058594 C 758.421875 289.148438 774.828125 284.769531 790.394531 280.398438 C 825.351562 270.578125 873.886719 261.5 910.828125 258.820312 C 944.097656 256.421875 1017.230469 252.800781 1051.210938 257.320312 C 1055.921875 257.949219 1058.449219 258.550781 1063.101562 258.640625 C 1097.808594 259.339844 1132.320312 267.710938 1166.550781 274.210938 C 1211.851562 282.828125 1259.328125 302.660156 1300.808594 318.921875 C 1329.078125 330.011719 1416.878906 376.800781 1430.988281 394.390625 L 1363.859375 354.910156 C 1325.261719 332.351562 1270.488281 311.25 1228.308594 297.238281 C 1216.21875 293.21875 1169.269531 279.441406 1159.738281 280.050781 C 1159.210938 283.179688 1163.960938 279.480469 1156 285.578125 C 1174.199219 291.761719 1192.621094 294.949219 1211.121094 301.820312 C 1222.609375 306.089844 1214.871094 305.820312 1238.191406 313.648438 C 1341.53125 348.359375 1444.140625 415.28125 1525.269531 502.191406 L 1522.230469 504.378906 C 1499.738281 479.878906 1477.160156 458.910156 1452.308594 438.21875 C 1428.621094 418.5 1367.429688 374.628906 1340.230469 362.660156 L 1333 360.300781 C 1342.320312 371.921875 1352.238281 372.050781 1361.558594 383.679688 L 1358.199219 386.25 C 1353.261719 382.179688 1291.019531 350.488281 1283.03125 350.660156 L 1340.769531 381.308594 C 1352.558594 388.230469 1387.210938 408.558594 1396.148438 418.410156 C 1387.46875 418.589844 1381.980469 412.109375 1373.570312 406.800781 C 1328.078125 378.101562 1278.421875 354.230469 1227.53125 337.21875 L 1217.351562 334.410156 C 1219.378906 340.261719 1222.660156 337.609375 1212.320312 338.269531 C 1221.410156 345.269531 1231.28125 343.28125 1240.769531 351.078125 L 1204.441406 340.871094 C 1173.921875 332.351562 1129.988281 323.691406 1098.75 319.421875 L 1007.449219 314.558594 C 962.242188 315.011719 923.078125 318.808594 877.601562 327.558594 C 802.59375 341.980469 714.824219 372.070312 647.175781 416.988281 C 619.695312 435.238281 594.847656 454.78125 568.296875 477.488281 L 533.121094 509 C 520.789062 521.261719 511.984375 528.859375 500.457031 540.851562 C 424.578125 619.75 375.390625 709.769531 349.339844 813.238281 C 346.054688 826.28125 321.777344 942.101562 331.386719 957.078125 C 334.402344 948.191406 332.839844 939.929688 334.140625 930.308594 C 335.375 921.171875 336.3125 914.25 337.519531 905.128906 C 353.90625 781.480469 409.570312 652.179688 492.578125 557.890625 C 580.273438 458.289062 685.449219 384.460938 814.847656 346.089844 C 833.691406 340.511719 851.644531 335.351562 869.476562 332 C 878.382812 330.320312 886.183594 328.699219 895.773438 326.910156 C 913.488281 323.601562 915.4375 322.238281 921.410156 326.828125 C 875.804688 329.738281 788.414062 361.019531 747.203125 378.789062 C 687.589844 404.488281 624.296875 448.851562 567.066406 499.941406 C 475.996094 581.238281 421.867188 675.851562 382.621094 789.011719 C 380.132812 796.179688 378.507812 801.328125 376.761719 807.828125 L 367.070312 848.75 C 364.726562 857.789062 364.738281 860.621094 363.425781 869.371094 C 362.183594 877.621094 360.21875 881.230469 359.089844 889.898438 C 339.46875 1040.859375 365.855469 1180.449219 444.011719 1317.191406 C 480.519531 1381.066406 527.738281 1432.226562 583.121094 1480.09375 C 607.113281 1500.828125 634.558594 1519.691406 660.261719 1534.941406 C 747.960938 1586.964844 861.242188 1624.648438 961.8125 1625.3125 C 988.167969 1625.488281 995.722656 1626.507812 1025.21875 1624.566406 C 1124.101562 1618.058594 1244.171875 1585.980469 1329.140625 1526.5 C 1371.941406 1496.542969 1378.140625 1491.730469 1418.039062 1458.371094 C 1442.71875 1437.742188 1468.871094 1406.867188 1486.640625 1384.5625 C 1611.449219 1227.929688 1618.691406 1057.199219 1632.949219 1028.242188 C 1638.960938 1016.042969 1640.988281 1028.796875 1642 1035.75 C 1643.128906 1043.445312 1641.828125 1048.722656 1644.769531 1055.820312 L 1649.390625 1009.703125 C 1649.519531 961.121094 1651.628906 925.808594 1649.199219 872.511719 C 1648 846.011719 1637.441406 781.898438 1631.019531 754.03125 C 1624.71875 726.660156 1629.601562 742.789062 1628.289062 731.058594 C 1627.878906 727.371094 1614.691406 688.171875 1612.699219 683.769531 C 1621.300781 680.210938 1624.800781 685.210938 1633.660156 696.988281 C 1650.039062 718.78125 1639.308594 716.171875 1650.640625 715.929688 C 1647.898438 709.890625 1648.308594 707.488281 1647.960938 702.011719 C 1653.601562 699.460938 1655.320312 699.839844 1660.210938 700.621094 L 1620.691406 621.519531 C 1600.160156 579.78125 1605 580.359375 1601.289062 572.21875 L 1588.371094 549.449219 L 1590.28125 547.621094 L 1614.488281 567.941406 C 1606.578125 557.128906 1612.980469 563.609375 1608.851562 553.628906 L 1649.859375 596.75 C 1649.808594 596.21875 1649.578125 595.53125 1649.46875 595.191406 L 1639.949219 574.328125 C 1629.839844 554.238281 1633.511719 557.929688 1635.898438 554.199219 C 1637.761719 555.140625 1639.859375 556.75 1642.148438 558.878906 L 1672.929688 599.070312 C 1684.210938 616.339844 1694.210938 633.570312 1698.070312 640.820312 C 1739.929688 719.550781 1751.53125 769.808594 1770.238281 852.378906 C 1781.738281 903.121094 1781.421875 997.199219 1773.980469 1053.351562 L 1760.609375 1131.46875 C 1753.960938 1173.738281 1728.511719 1247.507812 1712.351562 1286.359375 C 1683.460938 1355.808594 1618.851562 1454.195312 1566.148438 1508.15625 C 1560.980469 1513.449219 1552.449219 1520.253906 1547.949219 1526.84375 C 1541.519531 1536.277344 1542.628906 1534.558594 1532.320312 1544.367188 C 1519.710938 1556.371094 1505.921875 1568.566406 1491.300781 1580.625 Z M 1565.339844 486.910156 C 1569.191406 491.601562 1572.949219 496.328125 1576.621094 501.121094 L 1573.261719 503.691406 C 1570.589844 500.359375 1566.261719 495.679688 1560.828125 490.160156 Z M 1532.800781 510.378906 C 1545.28125 524.171875 1557.21875 538.441406 1568.539062 553.148438 C 1567.539062 554.148438 1566.53125 555.148438 1565.53125 556.160156 C 1553.328125 540.269531 1541.480469 525.910156 1529.679688 512.628906 Z M 640.882812 339.390625 Z M 653.914062 332.070312 L 645.523438 338.5 L 644.238281 336.820312 L 652.628906 330.390625 Z M 655.589844 330.789062 L 662.300781 325.648438 C 660.6875 330.039062 667.492188 324.671875 660.003906 329.601562 C 656.203125 332.109375 658.421875 330.578125 655.589844 330.789062 Z M 673.257812 322.578125 L 666.550781 327.71875 C 668.160156 323.328125 661.355469 328.699219 668.84375 323.761719 C 672.617188 321.269531 670.503906 322.820312 673.257812 322.578125 Z M 673.257812 322.578125 C 674.503906 321.628906 676.90625 319.589844 678.257812 318.980469 C 682.078125 317.261719 680.347656 318.058594 682.933594 317.828125 C 681.691406 318.78125 679.285156 320.820312 677.933594 321.429688 C 674.113281 323.148438 675.84375 322.351562 673.257812 322.578125 Z M 682.933594 317.828125 C 683.867188 317.121094 685.644531 315.699219 686.261719 315.460938 C 689.96875 314.011719 688.410156 314.550781 690.929688 314.371094 C 689.992188 315.078125 688.214844 316.5 687.601562 316.738281 C 683.890625 318.191406 685.449219 317.648438 682.933594 317.828125 Z M 398.722656 551.480469 C 398.304688 554.628906 390.320312 553.691406 396.1875 552.039062 C 396.234375 552.019531 399.378906 546.519531 398.722656 551.480469 Z M 393.296875 558.300781 L 392.414062 558.179688 C 392.472656 558.191406 393.335938 558 393.296875 558.300781 Z M 389.550781 563.828125 C 389.132812 566.980469 381.144531 566.039062 387.011719 564.390625 C 387.0625 564.371094 390.207031 558.871094 389.550781 563.828125 Z M 385.800781 569.359375 C 385.382812 572.511719 377.398438 571.570312 383.265625 569.921875 C 383.3125 569.910156 386.460938 564.398438 385.800781 569.359375 Z M 382.050781 574.890625 C 381.636719 578.039062 373.648438 577.109375 379.515625 575.449219 C 379.566406 575.441406 382.710938 569.929688 382.050781 574.890625 Z M 378.304688 580.429688 C 377.886719 583.578125 369.902344 582.640625 375.769531 580.988281 C 375.816406 580.96875 378.960938 575.460938 378.304688 580.429688 Z M 371.199219 588.53125 L 372.992188 584.089844 Z M 371.199219 588.53125 L 369.40625 592.960938 Z M 368.738281 595.738281 C 368.320312 598.890625 360.335938 597.949219 366.199219 596.300781 C 366.25 596.28125 369.394531 590.78125 368.738281 595.738281 Z M 361.632812 603.839844 L 363.429688 599.410156 Z M 357.886719 609.371094 C 358.421875 606.238281 353.664062 609.941406 361.632812 603.839844 C 361.097656 606.96875 365.855469 603.269531 357.886719 609.371094 Z M 725.300781 327.96875 C 718.324219 333.070312 704.976562 338.160156 697.859375 341.660156 L 610.503906 386.609375 C 627.410156 373.660156 675.375 348.769531 696.675781 339.25 C 701.378906 337.140625 705.613281 334.949219 711.152344 332.359375 Z M 355.816406 613.621094 L 357.886719 609.371094 Z M 352.066406 619.148438 C 352.605469 616.019531 347.847656 619.71875 355.816406 613.621094 C 355.277344 616.761719 360.035156 613.050781 352.066406 619.148438 Z M 349.996094 623.398438 L 352.066406 619.148438 Z M 347.925781 627.648438 L 349.996094 623.398438 Z M 725.300781 327.96875 L 749.316406 317.371094 C 753.964844 316.328125 751.269531 316.808594 753.929688 316.691406 C 748.550781 320.628906 732.0625 327.660156 725.300781 327.96875 Z M 344.179688 633.179688 C 344.714844 630.050781 339.957031 633.75 347.925781 627.648438 C 347.390625 630.78125 352.144531 627.078125 344.179688 633.179688 Z M 562.277344 466.140625 L 547.179688 477.699219 L 545.894531 476.03125 L 560.992188 464.460938 Z M 753.929688 316.691406 C 761.898438 310.589844 757.082031 314.21875 760.246094 314.511719 C 752.28125 320.621094 757.09375 316.988281 753.929688 316.691406 Z M 342.109375 637.429688 L 344.179688 633.179688 Z M 760.246094 314.511719 C 768.214844 308.410156 763.402344 312.039062 766.566406 312.339844 C 758.597656 318.441406 763.414062 314.808594 760.246094 314.511719 Z M 340.039062 641.679688 L 342.109375 637.429688 Z M 766.566406 312.339844 C 774.535156 306.230469 769.71875 309.859375 772.882812 310.160156 C 764.914062 316.261719 769.730469 312.628906 766.566406 312.339844 Z M 337.96875 645.921875 L 340.039062 641.679688 Z M 772.882812 310.160156 C 780.851562 304.058594 776.035156 307.691406 779.203125 307.980469 C 771.234375 314.089844 776.050781 310.460938 772.882812 310.160156 Z M 779.203125 307.980469 C 787.171875 301.878906 782.355469 305.511719 785.519531 305.808594 C 777.550781 311.910156 782.367188 308.28125 779.203125 307.980469 Z M 785.519531 305.808594 C 791.757812 301.800781 790.71875 302.378906 796.476562 302.738281 C 790.238281 306.738281 791.28125 306.160156 785.519531 305.808594 Z M 796.476562 302.738281 C 804.445312 296.628906 799.632812 300.261719 802.796875 300.558594 C 794.828125 306.660156 799.644531 303.03125 796.476562 302.738281 Z M 802.796875 300.558594 L 807.4375 299.671875 Z M 807.4375 299.671875 C 815.40625 293.558594 810.589844 297.191406 813.753906 297.488281 C 805.785156 303.589844 810.601562 299.960938 807.4375 299.671875 Z M 813.753906 297.488281 L 818.394531 296.601562 Z M 818.394531 296.601562 C 824.632812 292.589844 823.59375 293.171875 829.355469 293.53125 C 823.113281 297.53125 824.15625 296.960938 818.394531 296.601562 Z M 829.355469 293.53125 L 833.992188 292.640625 Z M 337.96875 645.921875 L 315.191406 692.648438 C 315.027344 684.960938 320.789062 676.851562 324.261719 669.730469 C 327.730469 662.621094 331.277344 651.988281 337.96875 645.921875 Z M 833.992188 292.640625 L 838.632812 291.738281 Z M 762.746094 352.53125 L 761.859375 352.410156 C 761.921875 352.421875 762.785156 352.230469 762.746094 352.53125 Z M 838.632812 291.738281 C 846.601562 285.640625 841.785156 289.269531 844.953125 289.570312 C 836.984375 295.671875 841.800781 292.039062 838.632812 291.738281 Z M 769.0625 350.351562 L 768.179688 350.238281 C 768.238281 350.238281 769.101562 350.058594 769.0625 350.351562 Z M 844.953125 289.570312 L 849.59375 288.671875 Z M 777.058594 346.890625 C 776.640625 350.039062 768.65625 349.101562 774.523438 347.449219 C 774.570312 347.441406 777.714844 341.929688 777.058594 346.890625 Z M 849.59375 288.671875 L 854.234375 287.78125 Z M 783.378906 344.710938 C 782.960938 347.859375 774.972656 346.921875 780.839844 345.269531 C 780.890625 345.261719 784.035156 339.75 783.378906 344.710938 Z M 854.234375 287.78125 L 858.871094 286.890625 Z M 789.695312 342.539062 C 789.277344 345.679688 781.289062 344.75 787.15625 343.101562 C 787.207031 343.078125 790.351562 337.570312 789.695312 342.539062 Z M 858.871094 286.890625 L 863.515625 286 Z M 796.011719 340.359375 C 795.597656 343.511719 787.609375 342.570312 793.476562 340.921875 C 793.527344 340.898438 796.671875 335.398438 796.011719 340.359375 Z M 863.515625 286 L 868.152344 285.109375 Z M 800.652344 339.46875 L 799.769531 339.351562 C 799.828125 339.359375 800.691406 339.171875 800.652344 339.46875 Z M 868.152344 285.109375 L 872.796875 284.210938 Z M 806.972656 337.289062 L 806.089844 337.171875 C 806.144531 337.179688 807.011719 336.988281 806.972656 337.289062 Z M 872.796875 284.210938 L 877.433594 283.320312 Z M 813.289062 335.109375 C 812.871094 338.261719 804.886719 337.320312 810.753906 335.671875 C 810.800781 335.660156 813.945312 330.148438 813.289062 335.109375 Z M 877.433594 283.320312 L 882.074219 282.429688 Z M 817.929688 334.21875 L 817.046875 334.101562 C 817.105469 334.109375 817.96875 333.929688 817.929688 334.21875 Z M 882.074219 282.429688 L 886.714844 281.539062 Z M 824.246094 332.039062 C 823.828125 335.191406 815.84375 334.25 821.710938 332.601562 C 821.761719 332.589844 824.90625 327.078125 824.246094 332.039062 Z M 886.714844 281.539062 L 889.679688 281.929688 Z M 828.886719 331.148438 L 828.003906 331.03125 C 828.0625 331.039062 828.925781 330.859375 828.886719 331.148438 Z M 889.679688 281.929688 L 894.320312 281.039062 Z M 835.207031 328.96875 L 830.894531 330.808594 Z M 894.320312 281.039062 L 898.957031 280.140625 Z M 835.207031 328.96875 L 839.519531 327.128906 Z M 898.957031 280.140625 L 903.597656 279.25 Z M 315.191406 692.648438 C 315.339844 699.488281 302.421875 726.300781 299.230469 735.75 C 297.148438 741.921875 296.902344 744.609375 292.523438 749.941406 C 292.355469 742.019531 308.84375 700.371094 315.191406 692.648438 Z M 844.488281 327.191406 L 843.605469 327.070312 C 843.660156 327.078125 844.527344 326.890625 844.488281 327.191406 Z M 903.597656 279.25 L 908.238281 278.359375 Z M 850.804688 325.011719 L 846.492188 326.851562 Z M 908.238281 278.359375 L 911.203125 278.75 Z M 292.523438 749.941406 C 292.78125 755.46875 293.972656 752.328125 290.0625 757.148438 C 289.804688 751.621094 288.613281 754.75 292.523438 749.941406 Z M 850.804688 325.011719 L 855.445312 324.121094 Z M 911.203125 278.75 L 915.84375 277.859375 Z M 855.445312 324.121094 L 860.085938 323.230469 Z M 915.84375 277.859375 L 920.484375 276.96875 Z M 290.0625 757.148438 C 290.316406 762.679688 291.507812 759.550781 287.597656 764.359375 C 287.339844 758.828125 286.152344 761.960938 290.0625 757.148438 Z M 860.085938 323.230469 L 864.398438 321.390625 Z M 920.484375 276.96875 L 923.445312 277.359375 Z M 869.367188 321.441406 L 868.484375 321.328125 C 868.539062 321.328125 869.40625 321.148438 869.367188 321.441406 Z M 923.445312 277.359375 L 928.085938 276.46875 Z M 287.597656 764.359375 C 287.855469 769.890625 289.042969 766.761719 285.132812 771.570312 C 284.878906 766.039062 283.6875 769.171875 287.597656 764.359375 Z M 874.007812 320.550781 L 873.121094 320.429688 C 873.183594 320.441406 874.046875 320.261719 874.007812 320.550781 Z M 928.085938 276.46875 Z M 878.644531 319.660156 L 877.765625 319.539062 C 877.820312 319.550781 878.6875 319.359375 878.644531 319.660156 Z M 935.6875 275.96875 Z M 883.285156 318.769531 L 882.402344 318.648438 C 882.460938 318.660156 883.328125 318.46875 883.285156 318.769531 Z M 935.6875 275.96875 Z M 285.132812 771.570312 C 285.558594 778.21875 286.941406 775.691406 282.277344 781.738281 C 281.855469 775.089844 280.472656 777.621094 285.132812 771.570312 Z M 887.929688 317.871094 Z M 943.292969 275.46875 Z M 887.929688 317.871094 L 892.566406 316.980469 Z M 943.292969 275.46875 Z M 282.277344 781.738281 C 282.535156 787.269531 283.726562 784.140625 279.816406 788.949219 C 279.558594 783.421875 278.367188 786.550781 282.277344 781.738281 Z M 892.566406 316.980469 L 897.210938 316.089844 Z M 950.894531 274.96875 Z M 897.210938 316.089844 L 901.847656 315.199219 Z M 950.894531 274.96875 Z M 901.847656 315.199219 L 906.488281 314.308594 Z M 958.496094 274.46875 Z M 279.816406 788.949219 C 280.238281 795.601562 281.621094 793.070312 276.960938 799.121094 C 276.535156 792.46875 275.152344 795.011719 279.816406 788.949219 Z M 906.488281 314.308594 Z M 958.496094 274.46875 Z M 914.09375 313.808594 Z M 966.101562 273.96875 Z M 914.09375 313.808594 L 918.730469 312.910156 Z M 966.101562 273.96875 Z M 276.960938 799.121094 C 277.382812 805.769531 278.765625 803.238281 274.101562 809.300781 C 273.679688 802.648438 272.296875 805.179688 276.960938 799.121094 Z M 918.730469 312.910156 L 923.371094 312.019531 Z M 973.703125 273.46875 Z M 273.710938 812.261719 L 274.101562 809.300781 Z M 923.371094 312.019531 L 926.335938 312.410156 Z M 973.703125 273.46875 Z M 926.335938 312.410156 L 930.976562 311.519531 Z M 930.976562 311.519531 L 935.617188 310.628906 Z M 984.269531 273.371094 Z M 273.710938 812.261719 C 274.132812 818.910156 275.519531 816.378906 270.855469 822.429688 C 270.429688 815.78125 269.046875 818.308594 273.710938 812.261719 Z M 935.617188 310.628906 L 938.578125 311.019531 Z M 982.199219 277.609375 L 981.316406 277.5 C 981.371094 277.5 982.238281 277.320312 982.199219 277.609375 Z M 984.269531 273.371094 Z M 270.460938 825.398438 L 270.855469 822.429688 Z M 938.578125 311.019531 L 943.21875 310.128906 Z M 943.21875 310.128906 L 947.859375 309.238281 Z M 956.246094 302.808594 C 948.347656 306.390625 941.859375 305.308594 933.171875 306.320312 C 877.089844 312.808594 820.484375 325.261719 766.636719 345.929688 C 698.835938 371.949219 637.070312 406.199219 566.027344 460.609375 L 564.742188 458.929688 C 667.378906 380.320312 735.65625 338.488281 861.265625 314.339844 C 877.757812 311.171875 943.273438 299.011719 956.246094 302.808594 Z M 994.835938 273.261719 Z M 947.859375 309.238281 L 950.820312 309.628906 Z M 992.765625 277.511719 L 991.882812 277.390625 C 991.9375 277.398438 992.804688 277.210938 992.765625 277.511719 Z M 994.835938 273.261719 Z M 270.460938 825.398438 C 270.886719 832.039062 272.269531 829.511719 267.605469 835.570312 C 267.183594 828.921875 265.796875 831.449219 270.460938 825.398438 Z M 950.820312 309.628906 L 955.460938 308.738281 Z M 956.246094 302.808594 C 961.914062 300.289062 958.578125 300.628906 963.851562 302.308594 C 958.1875 304.828125 961.523438 304.5 956.246094 302.808594 Z M 267.214844 838.53125 L 267.605469 835.570312 Z M 955.460938 308.738281 L 958.425781 309.128906 Z M 266.820312 841.488281 L 267.214844 838.53125 Z M 958.425781 309.128906 L 963.066406 308.238281 Z M 1003.328125 277.398438 Z M 1008.359375 273.550781 L 1007.480469 273.429688 C 1007.539062 273.441406 1008.398438 273.25 1008.359375 273.550781 Z M 963.066406 308.238281 L 966.027344 308.628906 Z M 1003.328125 277.398438 Z M 966.027344 308.628906 L 970.667969 307.738281 Z M 970.667969 307.738281 L 973.632812 308.128906 Z M 963.851562 302.308594 C 970.390625 299.609375 976.132812 299.710938 982.019531 301.710938 C 975.480469 304.421875 969.738281 304.308594 963.851562 302.308594 Z M 1013.898438 277.289062 Z M 266.820312 841.488281 C 267.230469 847.960938 267.957031 848.929688 263.570312 854.628906 C 263.160156 848.160156 262.433594 847.191406 266.820312 841.488281 Z M 1013.898438 277.289062 L 1016.859375 277.691406 Z M 263.179688 857.589844 L 263.570312 854.628906 Z M 973.632812 308.128906 C 979.296875 305.609375 975.960938 305.941406 981.234375 307.628906 C 975.570312 310.148438 978.90625 309.820312 973.632812 308.128906 Z M 982.019531 301.710938 C 987.683594 299.191406 984.347656 299.519531 989.621094 301.210938 C 983.957031 303.730469 987.292969 303.398438 982.019531 301.710938 Z M 1016.859375 277.691406 Z M 262.785156 860.558594 L 263.179688 857.589844 Z M 989.621094 301.210938 L 992.585938 301.601562 Z M 262.394531 863.519531 L 262.785156 860.558594 Z M 981.234375 307.628906 C 986.898438 305.109375 983.5625 305.449219 988.835938 307.128906 C 983.171875 309.648438 986.507812 309.320312 981.234375 307.628906 Z M 1027.421875 277.578125 Z M 262 866.480469 L 262.394531 863.519531 Z M 988.835938 307.128906 L 991.800781 307.53125 Z M 992.585938 301.601562 C 998.25 299.078125 994.914062 299.410156 1000.191406 301.101562 C 994.523438 303.621094 997.859375 303.289062 992.585938 301.601562 Z M 1027.421875 277.578125 L 1030.390625 277.96875 Z M 1000.191406 301.101562 L 1003.148438 301.488281 Z M 1030.390625 277.96875 L 1033.351562 278.371094 Z M 991.800781 307.53125 C 997.464844 305.011719 994.128906 305.339844 999.402344 307.03125 C 993.738281 309.550781 997.074219 309.21875 991.800781 307.53125 Z M 1033.351562 278.371094 L 1036.308594 278.761719 Z M 999.402344 307.03125 L 1002.371094 307.421875 Z M 1036.308594 278.761719 Z M 1003.148438 301.488281 C 1010.210938 298.570312 1007.410156 299.25 1013.71875 301.390625 C 1006.660156 304.308594 1009.460938 303.640625 1003.148438 301.488281 Z M 1043.921875 278.261719 Z M 1002.371094 307.421875 C 1008.03125 304.898438 1004.699219 305.230469 1009.96875 306.921875 C 1004.300781 309.441406 1007.640625 309.109375 1002.371094 307.421875 Z M 1013.71875 301.390625 L 1016.679688 301.78125 Z M 1043.921875 278.261719 L 1046.878906 278.648438 Z M 262 866.480469 L 259.941406 887.308594 C 256.347656 880.210938 257.371094 872.488281 262 866.480469 Z M 1009.96875 306.921875 L 1012.929688 307.308594 Z M 1046.878906 278.648438 L 1049.839844 279.039062 Z M 1016.679688 301.78125 C 1022.339844 299.261719 1019.011719 299.589844 1024.28125 301.28125 C 1018.621094 303.800781 1021.949219 303.46875 1016.679688 301.78125 Z M 1049.839844 279.039062 L 1052.800781 279.441406 Z M 1024.28125 301.28125 L 1027.238281 301.671875 Z M 1052.800781 279.441406 L 1055.769531 279.828125 Z M 1012.929688 307.308594 C 1019.988281 304.390625 1017.191406 305.058594 1023.5 307.210938 C 1016.441406 310.128906 1019.238281 309.449219 1012.929688 307.308594 Z M 1027.238281 301.671875 L 1030.210938 302.070312 Z M 1055.769531 279.828125 L 1058.730469 280.21875 Z M 1023.5 307.210938 L 1026.460938 307.601562 Z M 1030.210938 302.070312 L 1033.171875 302.460938 Z M 1058.730469 280.21875 L 1061.691406 280.609375 Z M 1061.691406 280.609375 Z M 1033.171875 302.460938 C 1038.839844 299.941406 1035.5 300.269531 1040.769531 301.960938 C 1035.109375 304.480469 1038.441406 304.148438 1033.171875 302.460938 Z M 1040.769531 301.960938 L 1043.738281 302.351562 Z M 1072.261719 280.511719 Z M 1026.460938 307.601562 C 1033.101562 304.851562 1033.851562 305.800781 1039.988281 307.890625 C 1033.351562 310.640625 1032.601562 309.679688 1026.460938 307.601562 Z M 1043.738281 302.351562 L 1046.699219 302.75 Z M 1072.261719 280.511719 L 1075.21875 280.898438 Z M 1039.988281 307.890625 L 1042.949219 308.28125 Z M 1046.699219 302.75 L 1049.660156 303.140625 Z M 1075.21875 280.898438 L 1078.179688 281.289062 Z M 1049.660156 303.140625 L 1052.621094 303.53125 Z M 1078.179688 281.289062 L 1081.140625 281.691406 Z M 1081.140625 281.691406 L 1084.109375 282.078125 Z M 1084.109375 282.078125 L 1087.070312 282.46875 Z M 1052.621094 303.53125 C 1059.679688 300.609375 1056.878906 301.28125 1063.191406 303.421875 C 1056.128906 306.351562 1058.929688 305.671875 1052.621094 303.53125 Z M 1076.609375 293.140625 Z M 1087.070312 282.46875 L 1090.03125 282.859375 Z M 1063.191406 303.421875 L 1066.148438 303.820312 Z M 1076.609375 293.140625 L 1079.570312 293.539062 Z M 1090.03125 282.859375 L 1093 283.261719 Z M 1066.148438 303.820312 L 1069.121094 304.210938 Z M 1079.570312 293.539062 L 1082.539062 293.929688 Z M 1093 283.261719 L 1095.960938 283.648438 Z M 1042.949219 308.28125 C 1050.398438 305.191406 1058.621094 307.449219 1065.371094 309.738281 C 1057.910156 312.828125 1049.699219 310.570312 1042.949219 308.28125 Z M 1069.121094 304.210938 L 1072.078125 304.601562 Z M 1082.539062 293.929688 L 1085.5 294.320312 Z M 1095.960938 283.648438 L 1098.921875 284.039062 Z M 1065.371094 309.738281 L 1068.328125 310.128906 Z M 1072.078125 304.601562 L 1075.039062 305 Z M 1085.5 294.320312 L 1088.460938 294.71875 Z M 1098.921875 284.039062 L 1101.878906 284.441406 Z M 1075.039062 305 L 1078 305.390625 Z M 1088.460938 294.71875 L 1091.421875 295.109375 Z M 1101.878906 284.441406 L 1104.851562 284.828125 Z M 1078 305.390625 L 1080.96875 305.78125 Z M 1091.421875 295.109375 L 1094.390625 295.5 Z M 1104.851562 284.828125 L 1107.808594 285.21875 Z M 1080.96875 305.78125 L 1083.929688 306.171875 Z M 1094.390625 295.5 L 1097.351562 295.890625 Z M 1107.808594 285.21875 L 1110.769531 285.609375 Z M 1083.929688 306.171875 L 1086.890625 306.570312 Z M 1097.351562 295.890625 L 1100.308594 296.289062 Z M 1110.769531 285.609375 L 1113.730469 286.011719 Z M 1086.890625 306.570312 L 1089.851562 306.960938 Z M 1100.308594 296.289062 L 1103.269531 296.679688 Z M 1089.851562 306.960938 L 1092.820312 307.351562 Z M 1103.269531 296.679688 L 1106.238281 297.070312 Z M 1092.820312 307.351562 L 1095.78125 307.738281 Z M 1106.238281 297.070312 Z M 1123.910156 288.859375 C 1117.261719 289.289062 1119.789062 290.671875 1113.730469 286.011719 C 1120.378906 285.578125 1117.851562 284.199219 1123.910156 288.859375 Z M 1095.78125 307.738281 L 1098.738281 308.140625 Z M 1098.738281 308.140625 L 1101.699219 308.53125 Z M 1123.910156 288.859375 L 1126.871094 289.261719 Z M 1101.699219 308.53125 L 1104.671875 308.921875 Z M 1126.871094 289.261719 L 1129.828125 289.648438 Z M 1104.671875 308.921875 L 1107.628906 309.320312 Z M 1119.371094 300.320312 Z M 1129.828125 289.648438 L 1132.789062 290.039062 Z M 1107.628906 309.320312 L 1110.589844 309.710938 Z M 1119.371094 300.320312 L 1122.339844 300.710938 Z M 1132.789062 290.039062 L 1135.761719 290.429688 Z M 1110.589844 309.710938 L 1113.550781 310.101562 Z M 1122.339844 300.710938 L 1125.300781 301.109375 Z M 1135.761719 290.429688 L 1138.71875 290.828125 Z M 1113.550781 310.101562 L 1116.519531 310.488281 Z M 1125.300781 301.109375 L 1128.261719 301.5 Z M 1138.71875 290.828125 L 1141.679688 291.21875 Z M 1150.070312 284.789062 Z M 1116.519531 310.488281 L 1119.480469 310.890625 Z M 1128.261719 301.5 L 1131.21875 301.890625 Z M 1150.070312 284.789062 L 1153.03125 285.191406 Z M 1159.738281 280.050781 Z M 1119.480469 310.890625 L 1122.441406 311.28125 Z M 1131.21875 301.890625 L 1134.191406 302.28125 Z M 1148.890625 293.679688 C 1143.359375 293.941406 1146.5 295.128906 1141.679688 291.21875 C 1147.210938 290.960938 1144.078125 289.769531 1148.890625 293.679688 Z M 1153.03125 285.191406 L 1156 285.578125 Z M 1122.441406 311.28125 L 1125.398438 311.671875 Z M 1134.191406 302.28125 Z M 1148.890625 293.679688 L 1151.859375 294.078125 Z M 1141.398438 304.75 Z M 1151.859375 294.078125 L 1154.820312 294.46875 Z M 1135.578125 314.53125 C 1128.929688 314.949219 1131.460938 316.328125 1125.398438 311.671875 C 1132.050781 311.25 1129.519531 309.859375 1135.578125 314.53125 Z M 1141.398438 304.75 L 1144.359375 305.140625 Z M 1154.820312 294.46875 L 1157.78125 294.859375 Z M 1144.359375 305.140625 L 1147.320312 305.53125 Z M 1135.578125 314.53125 L 1138.539062 314.921875 Z M 1147.320312 305.53125 L 1150.28125 305.929688 Z M 1138.539062 314.921875 L 1141.5 315.308594 Z M 1150.28125 305.929688 L 1153.25 306.320312 Z M 1167.949219 297.71875 C 1161.300781 298.140625 1163.839844 299.519531 1157.78125 294.859375 C 1164.429688 294.441406 1161.898438 293.050781 1167.949219 297.71875 Z M 1141.5 315.308594 L 1144.46875 315.710938 Z M 1157.488281 308.390625 L 1153.25 306.320312 Z M 1144.46875 315.710938 L 1147.429688 316.101562 Z M 1167.949219 297.71875 L 1170.921875 298.109375 Z M 1147.429688 316.101562 L 1150.390625 316.488281 Z M 1157.488281 308.390625 L 1160.460938 308.78125 Z M 1160.460938 308.78125 L 1163.421875 309.171875 Z M 1157.601562 318.960938 C 1152.070312 319.210938 1155.199219 320.398438 1150.390625 316.488281 C 1155.921875 316.238281 1152.789062 315.050781 1157.601562 318.960938 Z M 1163.421875 309.171875 L 1166.378906 309.570312 Z M 1181.089844 300.96875 C 1174.441406 301.390625 1176.96875 302.769531 1170.921875 298.109375 C 1177.570312 297.691406 1175.03125 296.300781 1181.089844 300.96875 Z M 1170.628906 311.640625 L 1166.378906 309.570312 Z M 1157.601562 318.960938 L 1160.558594 319.351562 Z M 1160.558594 319.351562 L 1163.53125 319.738281 Z M 1170.628906 311.640625 L 1173.589844 312.03125 Z M 331.386719 957.078125 Z M 1163.53125 319.738281 L 1166.488281 320.128906 Z M 1173.589844 312.03125 L 1176.558594 312.421875 Z M 1191.261719 303.820312 C 1184.609375 304.238281 1187.140625 305.628906 1181.089844 300.96875 C 1187.738281 300.539062 1185.210938 299.160156 1191.261719 303.820312 Z M 1170.738281 322.199219 L 1166.488281 320.128906 Z M 1176.558594 312.421875 Z M 1170.738281 322.199219 L 1173.699219 322.601562 Z M 1183.769531 314.890625 Z M 1173.699219 322.601562 L 1176.660156 322.988281 Z M 1183.769531 314.890625 L 1186.730469 315.28125 Z M 1201.441406 306.679688 C 1194.789062 307.101562 1197.320312 308.480469 1191.261719 303.820312 C 1197.910156 303.398438 1195.378906 302.011719 1201.441406 306.679688 Z M 1176.660156 322.988281 L 1179.628906 323.378906 Z M 1190.980469 317.351562 L 1186.730469 315.28125 Z M 1178.839844 329.308594 L 1068.328125 310.128906 C 1079.730469 305.410156 1147.960938 320.21875 1164.421875 324.339844 C 1170.808594 325.941406 1173.488281 325.191406 1178.839844 329.308594 Z M 1183.871094 325.449219 L 1179.628906 323.378906 Z M 1190.980469 317.351562 L 1193.941406 317.738281 Z M 1183.871094 325.449219 L 1186.839844 325.839844 Z M 1193.941406 317.738281 L 1196.898438 318.128906 Z M 1186.839844 325.839844 L 1189.800781 326.238281 Z M 1201.148438 320.210938 L 1196.898438 318.128906 Z M 1194.050781 328.308594 L 1189.800781 326.238281 Z M 1191.980469 332.558594 C 1185.5 332.96875 1184.539062 333.691406 1178.839844 329.308594 C 1185.308594 328.890625 1186.28125 328.171875 1191.980469 332.558594 Z M 1201.148438 320.210938 L 1204.109375 320.601562 Z M 1218.820312 312 C 1212.609375 312.390625 1207.039062 311 1201.441406 306.679688 C 1207.640625 306.28125 1213.210938 307.679688 1218.820312 312 Z M 1194.050781 328.308594 L 1197.011719 328.699219 Z M 1197.011719 328.699219 L 1199.96875 329.089844 Z M 1211.320312 323.058594 C 1205.789062 323.320312 1208.921875 324.511719 1204.109375 320.601562 C 1209.640625 320.339844 1206.511719 319.148438 1211.320312 323.058594 Z M 1204.21875 331.160156 L 1199.96875 329.089844 Z M 1226.03125 314.460938 C 1220.5 314.71875 1223.628906 315.910156 1218.820312 312 C 1224.351562 311.738281 1221.21875 310.550781 1226.03125 314.460938 Z M 1202.148438 335.410156 C 1195.5 335.839844 1198.03125 337.21875 1191.980469 332.558594 C 1198.621094 332.128906 1196.089844 330.75 1202.148438 335.410156 Z M 1211.320312 323.058594 L 1214.28125 323.449219 Z M 1204.21875 331.160156 L 1207.179688 331.558594 Z M 1218.53125 325.519531 L 1214.28125 323.449219 Z M 1207.179688 331.558594 L 1210.140625 331.949219 Z M 1233.238281 316.921875 C 1227.710938 317.179688 1230.839844 318.371094 1226.03125 314.460938 C 1231.558594 314.199219 1228.429688 313.011719 1233.238281 316.921875 Z M 1209.359375 337.871094 C 1203.828125 338.128906 1206.960938 339.320312 1202.148438 335.410156 C 1207.679688 335.160156 1204.550781 333.960938 1209.359375 337.871094 Z M 1214.390625 334.019531 L 1210.140625 331.949219 Z M 1218.53125 325.519531 L 1221.488281 325.921875 Z M 1225.738281 327.988281 L 1221.488281 325.921875 Z M 1209.359375 337.871094 L 1212.320312 338.269531 Z M 1214.390625 334.019531 L 1217.351562 334.410156 Z M 1225.738281 327.988281 L 1228.710938 328.378906 Z M 1232.949219 330.449219 L 1228.710938 328.378906 Z M 1240.160156 332.910156 C 1234.628906 333.171875 1237.769531 334.359375 1232.949219 330.449219 C 1238.480469 330.199219 1235.351562 329 1240.160156 332.910156 Z M 1244.410156 334.980469 L 1240.160156 332.910156 Z M 1244.410156 334.980469 L 1247.371094 335.378906 Z M 1251.621094 337.449219 L 1247.371094 335.378906 Z M 1258.828125 339.910156 C 1253.300781 340.171875 1256.429688 341.359375 1251.621094 337.449219 C 1257.148438 337.191406 1254.019531 336 1258.828125 339.910156 Z M 1263.078125 341.980469 L 1258.828125 339.910156 Z M 1233.238281 316.921875 C 1240.199219 316.769531 1277.160156 330.339844 1283.320312 337.128906 Z M 1278.78125 348.589844 C 1272.539062 348.71875 1268.699219 346.601562 1263.078125 341.980469 C 1269.320312 341.851562 1273.171875 343.960938 1278.78125 348.589844 Z M 1287.570312 339.199219 Z M 1287.570312 339.199219 Z M 1283.03125 350.660156 L 1278.78125 348.589844 Z M 1294.78125 341.660156 L 1293.890625 341.539062 C 1293.949219 341.550781 1294.808594 341.371094 1294.78125 341.660156 Z M 1299.019531 343.730469 Z M 1316.011719 352.011719 C 1313.171875 351.429688 1316.351562 352.5 1311.648438 350.789062 C 1309.640625 350.070312 1310.25 350.429688 1307.371094 349.03125 C 1302.898438 346.851562 1302.738281 346.789062 1299.019531 343.730469 C 1305.351562 343.601562 1310.46875 345.910156 1316.011719 352.011719 Z M 1316.011719 352.011719 Z M 1323.21875 354.480469 L 1322.339844 354.359375 C 1322.398438 354.371094 1323.261719 354.179688 1323.21875 354.480469 Z M 1327.46875 356.550781 L 1326.589844 356.429688 C 1326.648438 356.441406 1327.511719 356.25 1327.46875 356.550781 Z M 1333 360.300781 L 1328.570312 358.5 Z M 321.699219 1337.152344 C 320.75 1335.910156 318.714844 1333.507812 318.105469 1332.152344 C 316.378906 1328.335938 317.183594 1330.0625 316.953125 1327.480469 C 317.90625 1328.722656 319.9375 1331.128906 320.550781 1332.476562 C 322.277344 1336.300781 321.472656 1334.566406 321.699219 1337.152344 Z M 327.734375 1348.503906 C 326.785156 1347.265625 324.675781 1344.757812 323.980469 1343.484375 L 321.699219 1337.152344 C 322.648438 1338.394531 324.761719 1340.902344 325.453125 1342.171875 Z M 327.734375 1348.503906 L 333.765625 1359.855469 C 332.816406 1358.617188 330.707031 1356.105469 330.015625 1354.835938 Z M 342.761719 1371.597656 L 341.082031 1372.882812 L 333.371094 1362.816406 L 335.050781 1361.53125 Z M 351.363281 1386.304688 L 349.683594 1387.589844 L 340.6875 1375.847656 L 342.367188 1374.5625 Z M 362.535156 1404.367188 L 360.855469 1405.652344 L 351.859375 1393.910156 L 353.539062 1392.621094 Z M 372.421875 1420.753906 L 371.535156 1420.636719 C 371.59375 1420.644531 372.460938 1420.457031 372.421875 1420.753906 Z M 1618.839844 580.578125 Z M 1649.859375 596.75 L 1656.28125 605.140625 L 1654.601562 606.421875 C 1653.648438 605.179688 1651.621094 602.769531 1651.011719 601.421875 C 1649.28125 597.601562 1650.089844 599.328125 1649.859375 596.75 Z M 1645.039062 621.730469 L 1643.359375 623.019531 L 1635.648438 612.949219 L 1637.328125 611.671875 Z M 1652.359375 634.761719 L 1650.679688 636.050781 L 1642.96875 625.980469 L 1644.648438 624.699219 Z M 1656.710938 647.398438 L 1650.28125 639.011719 L 1651.960938 637.730469 C 1652.910156 638.96875 1654.949219 641.371094 1655.558594 642.730469 C 1657.28125 646.550781 1656.480469 644.820312 1656.710938 647.398438 Z M 1656.710938 647.398438 L 1666.019531 662.199219 C 1667.371094 665.960938 1665.910156 661.609375 1666.898438 665.328125 L 1667.488281 668.421875 C 1663.898438 663.738281 1663.699219 663.089844 1661.28125 658.558594 Z M 1667.488281 668.421875 L 1673.910156 676.808594 L 1672.238281 678.101562 C 1671.28125 676.851562 1669.25 674.449219 1668.640625 673.101562 C 1666.910156 669.28125 1667.71875 671.011719 1667.488281 668.421875 Z M 1676.089844 683.128906 C 1679.378906 687.421875 1673.640625 685.429688 1675.089844 683.890625 C 1675.109375 683.878906 1672.5 678.449219 1676.089844 683.128906 Z M 1661.101562 705.261719 C 1664.128906 707.980469 1663.550781 712.851562 1660.851562 707.140625 C 1660.789062 707 1655.5 700.25 1661.101562 705.261719 Z M 1679.550781 691.128906 L 1678.671875 691.011719 C 1678.730469 691.019531 1679.589844 690.828125 1679.550781 691.128906 Z M 1683.011719 699.121094 L 1682.128906 699.011719 C 1682.191406 699.011719 1683.050781 698.828125 1683.011719 699.121094 Z M 1694.289062 727.75 L 1693.410156 727.628906 C 1693.46875 727.640625 1694.328125 727.460938 1694.289062 727.75 Z M 1696.46875 734.070312 L 1695.589844 733.949219 C 1695.640625 733.960938 1696.511719 733.769531 1696.46875 734.070312 Z M 1698.648438 740.390625 C 1698.609375 740.679688 1697.949219 740.5 1697.761719 740.269531 C 1697.820312 740.28125 1698.691406 740.089844 1698.648438 740.390625 Z M 1703.679688 736.53125 C 1706.96875 740.820312 1701.230469 738.839844 1702.679688 737.300781 C 1702.699219 737.28125 1700.089844 731.851562 1703.679688 736.53125 Z M 1700.820312 746.699219 Z M 1705.859375 742.851562 C 1709.140625 747.140625 1703.410156 745.148438 1704.859375 743.609375 C 1704.878906 743.589844 1702.269531 738.171875 1705.859375 742.851562 Z M 1703 753.019531 Z M 1707.640625 752.128906 L 1705.800781 747.820312 Z M 1703.5 760.628906 L 1701.660156 756.308594 Z M 1707.640625 752.128906 L 1709.480469 756.441406 Z M 1703.5 760.628906 L 1705.339844 764.941406 Z M 1710.710938 763.089844 L 1708.871094 758.769531 Z M 1712.890625 769.410156 C 1706.789062 761.441406 1710.410156 766.25 1710.710938 763.089844 C 1716.808594 771.058594 1713.191406 766.238281 1712.890625 769.410156 Z M 1713.78125 774.050781 L 1712.890625 769.410156 Z M 1715.960938 780.359375 C 1709.859375 772.398438 1713.480469 777.210938 1713.78125 774.050781 C 1719.878906 782.019531 1716.261719 777.199219 1715.960938 780.359375 Z M 1716.851562 785.011719 L 1715.960938 780.359375 Z M 1716.851562 785.011719 C 1720.851562 791.238281 1720.28125 790.199219 1719.921875 795.960938 C 1715.921875 789.730469 1716.488281 790.769531 1716.851562 785.011719 Z M 1720.808594 800.601562 L 1719.921875 795.960938 Z M 1720.808594 800.601562 C 1726.101562 808.851562 1728.019531 828.070312 1729.921875 837.988281 C 1731.878906 848.140625 1737.5 866.601562 1735.089844 874.851562 C 1732.039062 868.121094 1720.230469 809.941406 1720.808594 800.601562 Z M 1735.980469 879.488281 L 1735.089844 874.851562 Z M 1736.871094 884.128906 L 1735.980469 879.488281 Z M 1737.761719 888.769531 L 1736.871094 884.128906 Z M 1737.761719 888.769531 Z M 1738.261719 896.371094 Z M 1739.160156 901.011719 L 1738.261719 896.371094 Z M 1739.160156 901.011719 Z M 1739.648438 908.621094 Z M 1739.648438 908.621094 Z M 1644.378906 1058.78125 L 1644.769531 1055.820312 Z M 1643.988281 1061.746094 L 1644.378906 1058.78125 Z M 1643.988281 1061.746094 Z M 1736.789062 1043.898438 Z M 1736.398438 1046.863281 L 1736.789062 1043.898438 Z M 1736.011719 1049.824219 L 1736.398438 1046.863281 Z M 1735.621094 1052.789062 L 1736.011719 1049.824219 Z M 1735.21875 1055.75 L 1735.621094 1052.789062 Z M 1735.21875 1055.75 L 1732.871094 1073.527344 C 1730.101562 1066.855469 1730.820312 1061.472656 1735.21875 1055.75 Z M 1732.46875 1076.488281 L 1732.871094 1073.527344 Z M 1732.078125 1079.453125 L 1732.46875 1076.488281 Z M 1757.25 1060.179688 Z M 1731.691406 1082.414062 L 1732.078125 1079.453125 Z M 1756.851562 1063.140625 L 1757.25 1060.179688 Z M 1731.300781 1085.378906 L 1731.691406 1082.414062 Z M 1756.460938 1066.101562 L 1756.851562 1063.140625 Z M 1730.898438 1088.339844 L 1731.300781 1085.378906 Z M 1756.070312 1069.066406 L 1756.460938 1066.101562 Z M 1730.511719 1091.304688 L 1730.898438 1088.339844 Z M 1755.679688 1072.027344 L 1756.070312 1069.066406 Z M 1730.121094 1094.265625 L 1730.511719 1091.304688 Z M 1755.28125 1074.988281 L 1755.679688 1072.027344 Z M 1729.71875 1097.226562 L 1730.121094 1094.265625 Z M 1754.890625 1077.953125 L 1755.28125 1074.988281 Z M 1729.328125 1100.191406 L 1729.71875 1097.226562 Z M 1754.5 1080.914062 L 1754.890625 1077.953125 Z M 1728.941406 1103.152344 L 1729.328125 1100.191406 Z M 1754.109375 1083.878906 L 1754.5 1080.914062 Z M 1728.550781 1106.113281 L 1728.941406 1103.152344 Z M 1753.710938 1086.839844 L 1754.109375 1083.878906 Z M 1728.148438 1109.078125 L 1728.550781 1106.113281 Z M 1753.320312 1089.804688 L 1753.710938 1086.839844 Z M 1727.761719 1112.039062 L 1728.148438 1109.078125 Z M 1752.929688 1092.765625 L 1753.320312 1089.804688 Z M 1727.371094 1115.003906 L 1727.761719 1112.039062 Z M 1752.53125 1095.730469 L 1752.929688 1092.765625 Z M 1752.140625 1098.691406 L 1752.53125 1095.730469 Z M 1727.371094 1115.003906 C 1727.621094 1120.535156 1728.808594 1117.402344 1724.910156 1122.214844 C 1724.648438 1116.683594 1723.460938 1119.816406 1727.371094 1115.003906 Z M 1751.75 1101.652344 L 1752.140625 1098.691406 Z M 1724.511719 1125.175781 L 1724.910156 1122.214844 Z M 1751.359375 1104.617188 L 1751.75 1101.652344 Z M 1724.121094 1128.140625 L 1724.511719 1125.175781 Z M 1750.960938 1107.578125 L 1751.359375 1104.617188 Z M 1723.730469 1131.101562 L 1724.121094 1128.140625 Z M 1750.570312 1110.542969 L 1750.960938 1107.578125 Z M 1723.328125 1134.0625 L 1723.730469 1131.101562 Z M 1750.179688 1113.503906 L 1750.570312 1110.542969 Z M 1722.941406 1137.027344 L 1723.328125 1134.0625 Z M 1749.78125 1116.46875 L 1750.179688 1113.503906 Z M 1722.550781 1139.988281 L 1722.941406 1137.027344 Z M 1749.390625 1119.429688 L 1749.78125 1116.46875 Z M 1722.550781 1139.988281 Z M 1720.089844 1147.199219 Z M 1749.390625 1119.429688 C 1749.648438 1124.960938 1750.839844 1121.828125 1746.929688 1126.640625 C 1746.671875 1121.109375 1745.480469 1124.242188 1749.390625 1119.429688 Z M 1719.691406 1150.160156 L 1720.089844 1147.199219 Z M 1746.539062 1129.601562 L 1746.929688 1126.640625 Z M 1719.300781 1153.125 L 1719.691406 1150.160156 Z M 1746.140625 1132.566406 L 1746.539062 1129.601562 Z M 1718.910156 1156.089844 L 1719.300781 1153.125 Z M 1745.75 1135.527344 L 1746.140625 1132.566406 Z M 1718.910156 1156.089844 Z M 1745.359375 1138.492188 L 1745.75 1135.527344 Z M 1716.441406 1163.296875 Z M 1744.960938 1141.453125 L 1745.359375 1138.492188 Z M 1716.050781 1166.261719 L 1716.441406 1163.296875 Z M 1742.890625 1145.703125 L 1744.960938 1141.453125 Z M 1716.050781 1166.261719 Z M 1742.5 1148.664062 L 1742.890625 1145.703125 Z M 1742.109375 1151.628906 L 1742.5 1148.664062 Z M 1713.199219 1176.433594 Z M 1741.71875 1154.589844 L 1742.109375 1151.628906 Z M 1712.800781 1179.394531 L 1713.199219 1176.433594 Z M 1741.320312 1157.550781 L 1741.71875 1154.589844 Z M 1712.800781 1179.394531 Z M 1739.25 1161.800781 L 1741.320312 1157.550781 Z M 1738.859375 1164.761719 L 1739.25 1161.800781 Z M 1709.949219 1189.570312 Z M 1738.46875 1167.726562 L 1738.859375 1164.761719 Z M 1709.949219 1189.570312 Z M 1738.46875 1167.726562 Z M 1736 1174.933594 Z M 1708.769531 1198.457031 L 1707.878906 1198.339844 C 1707.941406 1198.347656 1708.808594 1198.160156 1708.769531 1198.457031 Z M 1735.609375 1177.898438 L 1736 1174.933594 Z M 1735.21875 1180.859375 L 1735.609375 1177.898438 Z M 1733.148438 1185.109375 L 1735.21875 1180.859375 Z M 1732.761719 1188.070312 L 1733.148438 1185.109375 Z M 1732.359375 1191.035156 L 1732.761719 1188.070312 Z M 1730.289062 1195.28125 L 1732.359375 1191.035156 Z M 1729.898438 1198.242188 L 1730.289062 1195.28125 Z M 1729.898438 1198.242188 Z M 1727.441406 1205.453125 Z M 1727.039062 1208.417969 L 1727.441406 1205.453125 Z M 1724.96875 1212.664062 L 1727.039062 1208.417969 Z M 1724.578125 1215.628906 L 1724.96875 1212.664062 Z M 1722.511719 1219.875 L 1724.578125 1215.628906 Z M 1722.121094 1222.835938 L 1722.511719 1219.875 Z M 1720.050781 1227.085938 L 1722.121094 1222.835938 Z M 1719.648438 1230.046875 L 1720.050781 1227.085938 Z M 1717.578125 1234.296875 L 1719.648438 1230.046875 Z M 1717.191406 1237.257812 L 1717.578125 1234.296875 Z M 1715.121094 1241.503906 L 1717.191406 1237.257812 Z M 1715.121094 1241.503906 Z M 1712.660156 1248.714844 Z M 1712.660156 1248.714844 Z M 1710.191406 1255.925781 Z M 1708.121094 1260.171875 L 1710.191406 1255.925781 Z M 1708.121094 1260.171875 Z M 1705.660156 1267.382812 Z M 1703.589844 1271.632812 L 1705.660156 1267.382812 Z M 1703.589844 1271.632812 Z M 1702.800781 1277.558594 L 1701.921875 1277.441406 C 1701.980469 1277.445312 1702.839844 1277.261719 1702.800781 1277.558594 Z M 1700.730469 1281.804688 L 1699.851562 1281.6875 C 1699.910156 1281.695312 1700.769531 1281.511719 1700.730469 1281.804688 Z M 1696.988281 1287.335938 Z M 1696.988281 1287.335938 Z M 1696.199219 1293.261719 L 1695.320312 1293.144531 C 1695.371094 1293.152344 1696.238281 1292.96875 1696.199219 1293.261719 Z M 1694.128906 1297.511719 L 1693.25 1297.394531 C 1693.300781 1297.398438 1694.171875 1297.214844 1694.128906 1297.511719 Z M 1692.058594 1301.757812 L 1691.179688 1301.640625 C 1691.230469 1301.648438 1692.101562 1301.464844 1692.058594 1301.757812 Z M 1689.988281 1306.003906 L 1689.109375 1305.890625 C 1689.160156 1305.894531 1690.03125 1305.710938 1689.988281 1306.003906 Z M 1687.921875 1310.253906 L 1687.03125 1310.136719 C 1687.089844 1310.144531 1687.960938 1309.957031 1687.921875 1310.253906 Z M 1675.5 1335.738281 L 1674.609375 1335.621094 C 1674.671875 1335.628906 1675.539062 1335.441406 1675.5 1335.738281 Z M 1673.429688 1339.984375 L 1672.539062 1339.867188 C 1672.601562 1339.875 1673.460938 1339.691406 1673.429688 1339.984375 Z M 1671.359375 1344.234375 L 1670.46875 1344.117188 C 1670.53125 1344.125 1671.390625 1343.9375 1671.359375 1344.234375 Z M 1669.28125 1348.480469 L 1668.398438 1348.363281 C 1668.460938 1348.371094 1669.320312 1348.1875 1669.28125 1348.480469 Z M 1663.46875 1358.261719 L 1662.578125 1358.144531 C 1662.640625 1358.152344 1663.5 1357.96875 1663.46875 1358.261719 Z M 1661.398438 1362.507812 L 1660.511719 1362.390625 C 1660.570312 1362.398438 1661.429688 1362.214844 1661.398438 1362.507812 Z M 1659.320312 1366.757812 L 1658.441406 1366.640625 C 1658.5 1366.648438 1659.359375 1366.460938 1659.320312 1366.757812 "/>
<path fill-rule="evenodd" fill="rgb(19.993591%, 80.076599%, 19.993591%)" fill-opacity="1" d="M 471.613281 445.078125 C 431.605469 475.71875 385.78125 536.800781 357.941406 577.730469 C 328.070312 621.640625 304.527344 669.25 285.929688 715.898438 C 265.742188 766.539062 233.816406 876.988281 233.90625 930.589844 C 233.933594 946.75 226.835938 992.25 232.976562 1005.832031 L 238.253906 914.578125 C 238.847656 908.160156 239.808594 903.308594 240.640625 896.808594 L 254.652344 824.808594 C 286.75 689.578125 356.648438 561.519531 456.605469 462.679688 C 463.144531 456.21875 466.027344 455.121094 470.234375 447.910156 C 470.449219 447.539062 470.78125 446.789062 470.941406 446.488281 C 471.105469 446.199219 471.433594 445.570312 471.613281 445.078125 "/>
<path fill-rule="evenodd" fill="rgb(19.993591%, 80.076599%, 19.993591%)" fill-opacity="1" d="M 960.476562 1124.972656 C 959.679688 1122.542969 948.734375 1108.722656 946.296875 1105.40625 C 944.585938 1103.085938 943.117188 1101.25 941.527344 1098.917969 L 908.6875 1053.058594 C 882.789062 1018.5 670.246094 822.46875 635.257812 810.921875 C 631.933594 821.101562 527.117188 966.320312 510.230469 987.019531 C 493.738281 1007.242188 496.605469 994.699219 533.609375 1006.6875 C 541.210938 1009.148438 549.320312 1012.851562 555.859375 1016.203125 L 570.785156 1024.773438 C 675.078125 1088.164062 778.785156 1211.832031 847.804688 1304.574219 C 861.769531 1323.339844 873.878906 1343.109375 887.738281 1361.945312 C 898.355469 1376.375 908.054688 1391.46875 918.683594 1405.894531 C 920.851562 1408.832031 922.722656 1411.5625 924.960938 1414.609375 C 927.480469 1418.035156 947.570312 1446.960938 950.792969 1448.886719 C 951.75 1447.410156 952.65625 1445.492188 953.558594 1443.730469 C 954.574219 1441.75 955.285156 1440.324219 956.257812 1438.515625 L 996.09375 1363.757812 C 997.847656 1360.261719 999.757812 1356.871094 1001.640625 1353.453125 C 1002.519531 1351.851562 1003.410156 1350.070312 1004.441406 1348.328125 L 1024.878906 1311.125 C 1032.921875 1295.222656 1045.410156 1275.261719 1054.269531 1258.984375 L 1139.199219 1114.257812 L 1170.671875 1063.816406 C 1172.75 1060.414062 1174.699219 1056.773438 1177.011719 1053.667969 C 1181.730469 1047.339844 1185.230469 1039.921875 1189.949219 1033.582031 C 1194.421875 1027.585938 1204.28125 1011.441406 1209.398438 1003.972656 C 1211.738281 1000.546875 1213.558594 997.21875 1215.890625 993.949219 L 1235.859375 964.28125 C 1238.109375 961.078125 1240.371094 957.910156 1242.679688 954.519531 C 1247.210938 947.851562 1251.460938 941.839844 1255.988281 935.230469 L 1266.089844 920.730469 C 1267.230469 919.011719 1268.539062 917.398438 1269.691406 915.769531 L 1332.910156 829.460938 C 1344.671875 813.769531 1357.511719 798.671875 1369.21875 782.96875 C 1377.601562 771.75 1397.441406 748.160156 1406.851562 737.058594 L 1492.859375 639.699219 C 1506.210938 625.171875 1519.578125 610.488281 1533.710938 596.441406 L 1554.5 575.351562 C 1564.148438 565.378906 1573.910156 555.25 1584.25 545.761719 L 1644.460938 488.140625 C 1645.289062 487.46875 1645.808594 487.140625 1646.558594 486.398438 L 1670.789062 463.660156 C 1672.699219 462.039062 1673.371094 461.539062 1675.101562 459.761719 C 1676.628906 458.191406 1678.171875 457.359375 1679.769531 455.671875 L 1710.429688 427.808594 C 1712.460938 426.179688 1713.269531 425.480469 1715.039062 423.660156 L 1733.140625 407.800781 C 1734.929688 406.328125 1735.511719 405.328125 1737.359375 403.828125 L 1846.878906 309.851562 C 1851.148438 305.671875 1856.300781 302.019531 1860.828125 298.011719 C 1862.519531 296.519531 1863.148438 295.589844 1865.058594 294.050781 L 1892.898438 270.808594 C 1894.570312 269.441406 1896.640625 268.46875 1897.289062 266.480469 C 1885.179688 273.101562 1873.421875 280.769531 1861.671875 287.820312 C 1858.609375 289.660156 1856.011719 291.160156 1852.941406 293.039062 L 1729.398438 369.628906 C 1726.25 371.628906 1723.519531 373.230469 1720.488281 375.210938 L 1651.171875 420.429688 C 1634.289062 432.078125 1616.929688 443.140625 1600.28125 455 C 1598.738281 456.101562 1597.929688 456.550781 1596.359375 457.738281 L 1514.058594 517.078125 C 1508.519531 521.679688 1499.148438 527.738281 1493.46875 532.398438 C 1492.011719 533.601562 1491.019531 534.429688 1489.558594 535.628906 C 1487.871094 537.019531 1486.949219 537.339844 1485.308594 538.578125 C 1477.960938 544.128906 1464.511719 555.808594 1457.839844 560.148438 L 1373.109375 630.871094 C 1371.621094 632.398438 1371.171875 632.871094 1369.421875 634.28125 L 1350.980469 650.859375 C 1349.398438 652.191406 1348.519531 652.75 1347.179688 654.191406 L 1318.289062 681.019531 C 1316.628906 682.421875 1316.128906 683.109375 1314.640625 684.46875 C 1313.941406 685.109375 1313.570312 685.300781 1312.871094 685.980469 L 1275.691406 722.371094 C 1255.148438 743.558594 1234.609375 764.648438 1214.738281 786.300781 L 1194.761719 808.550781 C 1174.921875 830.011719 1149.640625 861.210938 1131.261719 883.738281 C 1127.058594 888.878906 1123.140625 893.898438 1119.03125 898.96875 L 1048.339844 993.53125 C 1041.300781 1003.09375 1023.96875 1027.542969 1017.769531 1037.777344 C 1016.71875 1039.515625 1015.910156 1040.351562 1014.941406 1041.890625 C 1013.148438 1044.722656 1011.269531 1047.265625 1009.300781 1050.140625 L 982.050781 1091.667969 C 978.414062 1097.519531 975.152344 1102.46875 971.570312 1108.324219 C 969.644531 1111.46875 967.992188 1113.652344 966.121094 1116.730469 C 964.75 1118.992188 962.523438 1123.746094 960.476562 1124.972656 "/>
</svg>
